<?xml version="1.0" encoding="UTF-8"?>
<svg version="1.1" xmlns="http://www.w3.org/2000/svg" width="892" height="218">
<path d="M0 0 C2.64 0 5.28 0 8 0 C11.32575612 5.5825192 12.46450943 9.49686791 12 16 C14.87866256 16.13478935 14.87866256 16.13478935 18 15 C19.72531639 12.5116724 20.83370836 9.78614113 22 7 C23.1875 4.4375 23.1875 4.4375 25 3 C28.07043439 2.98355124 30.99020415 3.4194943 34 4 C35.07957377 7.23872132 35.13326784 9.66028205 35.125 13.0625 C35.12757813 14.12597656 35.13015625 15.18945312 35.1328125 16.28515625 C35 19 35 19 34 21 C36.26758686 21.89472883 36.26758686 21.89472883 39 22 C41.39791936 20.17921758 41.39791936 20.17921758 43.5 17.625 C47.38379712 13.20786454 47.38379712 13.20786454 50.60546875 12.12109375 C53.8308943 11.95798088 55.42224056 13.15874326 58 15 C57.63223832 21.30267439 56.83374078 26.33251843 54 32 C57.02167833 32.98204546 59.09619992 33.45630452 62.00390625 31.98828125 C63.37961032 31.07723624 64.75071643 30.15921093 66.1171875 29.234375 C68.51844146 27.66010892 70.09837793 26.84315556 73 27 C75.8125 29.4375 75.8125 29.4375 78 32 C76.34292168 37.64913063 74.52237988 42.26300637 71 47 C71.99 47.99 72.98 48.98 74 50 C75.10408203 49.65775391 75.10408203 49.65775391 76.23046875 49.30859375 C77.20628906 49.02113281 78.18210937 48.73367187 79.1875 48.4375 C80.15042969 48.14746094 81.11335937 47.85742188 82.10546875 47.55859375 C85.1760349 46.96602835 87.03883721 47.04197674 90 48 C91.9375 50.25 91.9375 50.25 93 53 C92.44767304 57.19768487 89.98677681 58.94646379 86.875 61.5 C86.15054688 62.0465625 85.42609375 62.593125 84.6796875 63.15625 C82.7305176 64.92223902 82.7305176 64.92223902 82.7578125 67.71875 C82.83773437 68.4715625 82.91765625 69.224375 83 70 C84.13179687 69.97679688 85.26359375 69.95359375 86.4296875 69.9296875 C87.91145175 69.91093099 89.39322312 69.89273066 90.875 69.875 C91.62136719 69.85824219 92.36773438 69.84148437 93.13671875 69.82421875 C95.09194461 69.8066041 97.04742021 69.89679811 99 70 C101.76223278 72.76223278 101.57856291 75.20706617 102 79 C93.738041 85.51936219 93.738041 85.51936219 89 87 C89 88.65 89 90.3 89 92 C90.12148438 92.18175781 90.12148438 92.18175781 91.265625 92.3671875 C92.25046875 92.53476563 93.2353125 92.70234375 94.25 92.875 C95.22453125 93.03742188 96.1990625 93.19984375 97.203125 93.3671875 C100 94 100 94 104 96 C104 98.97 104 101.94 104 105 C98.87674471 107.45489316 94.66104589 108.50341703 89 109 C89 110.65 89 112.3 89 114 C89.68707031 114.32613281 90.37414062 114.65226562 91.08203125 114.98828125 C91.98308594 115.42527344 92.88414062 115.86226563 93.8125 116.3125 C94.70582031 116.74175781 95.59914063 117.17101562 96.51953125 117.61328125 C98.84593924 118.91387154 100.45558987 119.83250027 102 122 C101.92578125 124.0078125 101.92578125 124.0078125 101.3125 126.125 C101.12300781 126.82882813 100.93351563 127.53265625 100.73828125 128.2578125 C100 130 100 130 98 131 C95.62597499 131.07116382 93.24999323 131.08409085 90.875 131.0625 C89.59367188 131.05347656 88.31234375 131.04445312 86.9921875 131.03515625 C85.51105469 131.01775391 85.51105469 131.01775391 84 131 C83.34 132.65 82.68 134.3 82 136 C82.58265625 136.24492187 83.1653125 136.48984375 83.765625 136.7421875 C86.36302236 138.20435874 87.83975831 139.84740414 89.75 142.125 C90.36359375 142.84945312 90.9771875 143.57390625 91.609375 144.3203125 C92.06828125 144.87460938 92.5271875 145.42890625 93 146 C91.87548273 148.9719385 90.77706209 151.33440687 89 154 C87.0830014 153.68954268 85.16641277 153.37655329 83.25 153.0625 C82.18265625 152.88847656 81.1153125 152.71445313 80.015625 152.53515625 C77.63652407 152.11295829 75.33084789 151.62797116 73 151 C72.34 152.32 71.68 153.64 71 155 C71.804375 155.99 72.60875 156.98 73.4375 158 C76.33614196 162.08294424 77.08223142 164.98388341 77 170 C75.0625 172.5 75.0625 172.5 73 174 C64.60538117 171.47085202 64.60538117 171.47085202 61.75 169.25 C59.99535086 167.68673257 59.99535086 167.68673257 57.390625 168.421875 C56.60171875 168.61265625 55.8128125 168.8034375 55 169 C55.23976563 169.96421875 55.47953125 170.9284375 55.7265625 171.921875 C56.02304687 173.18515625 56.31953125 174.4484375 56.625 175.75 C57.07746094 177.62945312 57.07746094 177.62945312 57.5390625 179.546875 C58.00472338 183.03538533 58.08440093 184.24468252 56 187 C53.375 188.6875 53.375 188.6875 50 189 C45.51905108 186.22647585 42.11269918 182.85058484 40 178 C37.525 178.99 37.525 178.99 35 180 C35.02320313 180.89203125 35.04640625 181.7840625 35.0703125 182.703125 C35.08835937 183.87359375 35.10640625 185.0440625 35.125 186.25 C35.14820313 187.41015625 35.17140625 188.5703125 35.1953125 189.765625 C35.00850814 192.8591052 34.80036224 194.51126396 33 197 C29.75 198.1875 29.75 198.1875 26 198 C21.69733594 194.69332299 19.14940706 189.89587163 17 185 C15.68 185 14.36 185 13 185 C12.89042969 185.73605469 12.78085937 186.47210938 12.66796875 187.23046875 C10.88356057 198.21255812 10.88356057 198.21255812 8 201 C5.20410366 201.4096957 2.85198418 201.2337692 0 201 C-0.67679658 199.274773 -1.34102 197.54461061 -2 195.8125 C-2.556875 194.36810547 -2.556875 194.36810547 -3.125 192.89453125 C-3.97636772 190.07817642 -4.17072647 187.91835561 -4 185 C-5.98 184.67 -7.96 184.34 -10 184 C-10.10183594 184.72574219 -10.20367187 185.45148438 -10.30859375 186.19921875 C-11.07339613 189.29731653 -12.23748505 191.21088295 -14.0625 193.8125 C-14.61035156 194.60269531 -15.15820312 195.39289063 -15.72265625 196.20703125 C-16.14417969 196.79871094 -16.56570313 197.39039063 -17 198 C-19.64 197.67 -22.28 197.34 -25 197 C-27.01167675 191.21642935 -27.22084624 186.09781001 -27 180 C-28.32 179.67 -29.64 179.34 -31 179 C-31.47050781 179.55429688 -31.94101562 180.10859375 -32.42578125 180.6796875 C-33.35970703 181.76636719 -33.35970703 181.76636719 -34.3125 182.875 C-35.23482422 183.95394531 -35.23482422 183.95394531 -36.17578125 185.0546875 C-38 187 -38 187 -41 189 C-44.46418389 188.65358161 -46.04929881 187.96713413 -49 186 C-49.6080669 180.16255771 -48.28063483 174.68281705 -47 169 C-48.80420215 168.26901926 -48.80420215 168.26901926 -51 168 C-52.99786974 168.92835898 -52.99786974 168.92835898 -54.875 170.375 C-58.26039522 172.62144256 -60.80851527 174.09526102 -65 174 C-67.4375 172.5 -67.4375 172.5 -69 170 C-69.10644174 164.46502963 -67.08109534 161.15314774 -63.86328125 156.89453125 C-63.57839844 156.26933594 -63.29351562 155.64414063 -63 155 C-63.76290297 152.76954624 -63.76290297 152.76954624 -65 151 C-65.73605469 151.2165625 -66.47210938 151.433125 -67.23046875 151.65625 C-68.69419922 152.07390625 -68.69419922 152.07390625 -70.1875 152.5 C-71.63189453 152.91765625 -71.63189453 152.91765625 -73.10546875 153.34375 C-75.89476508 153.97614107 -78.15708617 154.29069656 -81 154 C-83.16473095 151.47448056 -84 149.90607951 -84 146.5625 C-82.05478555 141.57788798 -78.4052004 137.93680027 -74 135 C-74.66 133.68 -75.32 132.36 -76 131 C-76.97582031 131.03480469 -77.95164062 131.06960937 -78.95703125 131.10546875 C-80.86548828 131.14607422 -80.86548828 131.14607422 -82.8125 131.1875 C-84.07707031 131.22230469 -85.34164063 131.25710937 -86.64453125 131.29296875 C-90 131 -90 131 -91.8984375 129.6953125 C-93 128 -93 128 -93.8125 124.6875 C-93 121 -93 121 -90.8671875 119.2109375 C-84.02191943 115 -84.02191943 115 -80 115 C-80.495 112.03 -80.495 112.03 -81 109 C-81.99580078 108.81824219 -81.99580078 108.81824219 -83.01171875 108.6328125 C-87.53424459 107.77452292 -91.79938524 106.96028689 -96 105 C-96 102.03 -96 99.06 -96 96 C-90.75117306 92.82307843 -85.98511371 92.34302035 -80 92 C-80 90.02 -80 88.04 -80 86 C-80.70125 85.9175 -81.4025 85.835 -82.125 85.75 C-87.34097692 84.38931037 -91.09833555 81.51370025 -94 77 C-92.515 73.535 -92.515 73.535 -91 70 C-85.72 70 -80.44 70 -75 70 C-75 68.35 -75 66.7 -75 65 C-76.97266584 63.20268224 -78.89310439 61.60958269 -81 60 C-82.9375 58.125 -82.9375 58.125 -84 56 C-83.67272727 49.67272727 -83.67272727 49.67272727 -81 47 C-75.48775908 46.88103077 -70.11518334 47.98084868 -65 50 C-63.51040344 47.91002521 -63.51040344 47.91002521 -63 45 C-64.08072576 43.11989444 -65.38772558 41.53014137 -66.734375 39.83203125 C-68.74648732 36.91943656 -69.06583109 34.48904758 -69 31 C-67.4375 28.5 -67.4375 28.5 -65 27 C-60.01286637 26.88665605 -56.81405066 29.21548928 -52.9296875 32.0390625 C-51.01634574 33.22427004 -51.01634574 33.22427004 -48.7578125 32.6484375 C-48.17773438 32.43445312 -47.59765625 32.22046875 -47 32 C-47.2165625 31.10796875 -47.433125 30.2159375 -47.65625 29.296875 C-47.9346875 28.12640625 -48.213125 26.9559375 -48.5 25.75 C-48.7784375 24.58984375 -49.056875 23.4296875 -49.34375 22.234375 C-50 19 -50 19 -50 15 C-47.42803164 12.8689405 -45.86718839 11.97832029 -42.5 12.0625 C-37.89073982 13.79097257 -34.61621363 16.86913637 -32 21 C-32 21.66 -32 22.32 -32 23 C-30.02 22.34 -28.04 21.68 -26 21 C-26.16242188 20.4328125 -26.32484375 19.865625 -26.4921875 19.28125 C-27.01234091 16.94456082 -27.13318559 14.89019234 -27.125 12.5 C-27.12886719 11.37078125 -27.12886719 11.37078125 -27.1328125 10.21875 C-27 8 -27 8 -26 4 C-21.545 3.505 -21.545 3.505 -17 3 C-16.01364163 4.41166886 -15.03618745 5.82956184 -14.0625 7.25 C-13.51722656 8.03890625 -12.97195313 8.8278125 -12.41015625 9.640625 C-11.10377559 11.82636993 -10.45019489 13.5153801 -10 16 C-8.02 16 -6.04 16 -4 16 C-3.96261719 15.34773438 -3.92523438 14.69546875 -3.88671875 14.0234375 C-3.48506238 8.68377043 -2.83238391 4.6795908 0 0 Z M-46.6875 45.68359375 C-61.65669915 60.67807871 -70.00515663 78.26374348 -70.375 99.625 C-70.29785083 120.87849424 -61.50151965 138.95800112 -46.921875 154.16796875 C-32.00968227 168.44501253 -12.18745948 174.61719659 8.12890625 174.2734375 C25.52761818 173.57513831 41.10700784 166.62853058 54 155 C54.68449219 154.40832031 55.36898437 153.81664062 56.07421875 153.20703125 C69.04028169 141.25991235 77.6025236 123.23006754 78.3359375 105.6171875 C78.70465069 82.4363498 72.72356086 63.31245159 56.453125 46.4296875 C28.03290975 18.46786282 -17.9145247 18.43226618 -46.6875 45.68359375 Z " fill="#F9A31A" transform="translate(442,3)"/>
<path d="M0 0 C12.43845975 12.29210034 19.14200062 28.43131438 20.10864258 45.81030273 C20.12683848 61.87728365 15.54009491 76.28602902 6.11254883 89.25952148 C5.66395508 89.89245117 5.21536133 90.52538086 4.75317383 91.17749023 C-4.94476061 103.64218832 -21.39163947 112.11422032 -36.88745117 114.25952148 C-55.3968955 115.83397629 -73.28590853 112.7458747 -88.07885742 100.74780273 C-101.93047238 88.89738219 -111.51952715 73.49366746 -113.07202148 55.0690918 C-114.25078816 34.80956958 -108.7880669 17.42369363 -95.39916992 1.82983398 C-69.56713833 -24.6048111 -26.87717521 -25.37604485 0 0 Z M-80.43041992 3.41186523 C-83.93397467 6.04649385 -86.97563569 8.98994028 -89.88745117 12.25952148 C-88.71241615 15.78462655 -87.62887937 16.17943869 -84.42959595 17.78523254 C-83.8098288 18.08225571 -83.19006165 18.37927887 -82.55151367 18.68530273 C-81.91635834 18.99654587 -81.281203 19.307789 -80.62680054 19.62846375 C-79.28259124 20.28318504 -77.93579597 20.93261953 -76.58666992 21.57714844 C-74.51897283 22.56889345 -72.465041 23.58577647 -70.41088867 24.60522461 C-69.10435328 25.23764877 -67.7970844 25.86856031 -66.48901367 26.49780273 C-65.87329498 26.80494705 -65.25757629 27.11209137 -64.62319946 27.42854309 C-62.7034896 28.36903739 -62.7034896 28.36903739 -59.88745117 29.25952148 C-56.63654126 27.60254138 -56.63654126 27.60254138 -56.36328125 24.64916992 C-56.26116333 23.02543457 -56.26116333 23.02543457 -56.15698242 21.36889648 C-56.07641602 20.18424805 -55.99584961 18.99959961 -55.9128418 17.77905273 C-55.84258789 16.53510742 -55.77233398 15.29116211 -55.69995117 14.00952148 C-55.6180957 12.78104492 -55.53624023 11.55256836 -55.4519043 10.28686523 C-55.10685226 4.93420933 -54.8446067 -0.37534251 -54.88745117 -5.74047852 C-62.92653434 -8.83988407 -73.93174462 -0.91741333 -80.43041992 3.41186523 Z M-37.88745117 -6.74047852 C-39.0482418 -3.16364907 -38.85478843 -0.05886437 -38.58276367 3.66967773 C-38.49381836 4.9065332 -38.40487305 6.14338867 -38.31323242 7.41772461 C-38.21397461 8.70614258 -38.1147168 9.99456055 -38.01245117 11.32202148 C-37.92092773 12.61430664 -37.8294043 13.9065918 -37.73510742 15.23803711 C-37.35856663 21.85128477 -37.35856663 21.85128477 -35.88745117 28.25952148 C-28.95399493 27.36469467 -23.32258651 24.4451785 -17.07495117 21.44702148 C-15.33955078 20.64554688 -15.33955078 20.64554688 -13.5690918 19.82788086 C-12.47145508 19.30387695 -11.37381836 18.77987305 -10.24291992 18.23999023 C-9.23898193 17.76456787 -8.23504395 17.28914551 -7.20068359 16.79931641 C-4.72796578 15.47607718 -4.72796578 15.47607718 -4.05273438 13.07324219 C-3.97091919 12.17545044 -3.97091919 12.17545044 -3.88745117 11.25952148 C-13.30269069 2.81251582 -24.59212053 -6.74047852 -37.88745117 -6.74047852 Z M4.11254883 28.25952148 C0.58687889 30.64115526 -2.93682622 33.02565953 -6.45874023 35.4128418 C-7.65709724 36.22450645 -8.8559873 37.03538466 -10.05541992 37.84545898 C-11.77948545 39.01005954 -13.50161338 40.17747603 -15.22338867 41.34545898 C-16.26027832 42.04719238 -17.29716797 42.74892578 -18.36547852 43.47192383 C-20.90773466 45.16781557 -20.90773466 45.16781557 -22.88745117 47.25952148 C-22.7915502 49.29296665 -22.7915502 49.29296665 -21.88745117 51.25952148 C-19.60094973 53.02086518 -17.38852107 54.55365553 -14.94995117 56.07202148 C-13.58069884 56.94973897 -12.21221125 57.82865059 -10.84448242 58.70874023 C-9.83442139 59.35335205 -9.83442139 59.35335205 -8.80395508 60.01098633 C-5.38931702 62.2355034 -2.11853996 64.66038452 1.15942383 67.07983398 C3.16024735 68.51802705 3.16024735 68.51802705 6.11254883 68.25952148 C10.44139514 56.56132966 10.98262001 42.7847318 6.96411133 30.91186523 C6.21892624 29.06680122 6.21892624 29.06680122 4.11254883 28.25952148 Z M-99.88745117 29.25952148 C-103.68727327 43.07911258 -103.68727327 54.43993039 -99.88745117 68.25952148 C-96.50276612 68.25952148 -95.70905676 67.72089728 -92.97338867 65.88061523 C-92.21590332 65.37433594 -91.45841797 64.86805664 -90.67797852 64.34643555 C-89.88085449 63.80212891 -89.08373047 63.25782227 -88.26245117 62.69702148 C-87.45372559 62.15142578 -86.645 61.60583008 -85.81176758 61.04370117 C-80.33728314 57.32347751 -74.98262764 53.4906037 -69.88745117 49.25952148 C-72.64028768 45.52177319 -75.32195444 43.02137162 -79.20385742 40.48999023 C-80.21512695 39.8293457 -81.22639648 39.16870117 -82.26831055 38.48803711 C-83.31825195 37.81450195 -84.36819336 37.1409668 -85.44995117 36.44702148 C-86.50375977 35.75415039 -87.55756836 35.0612793 -88.64331055 34.34741211 C-93.85991636 30.57529179 -93.85991636 30.57529179 -99.88745117 29.25952148 Z M-60.88745117 37.25952148 C-64.36197859 42.29159568 -64.84802994 47.33137826 -63.88745117 53.25952148 C-61.93373331 58.33050473 -58.82844149 62.23276368 -53.90698242 64.63452148 C-48.52231881 66.3009551 -43.03902989 66.21475064 -38.01245117 63.57202148 C-33.04270027 59.89440582 -30.20428056 56.36482136 -28.88745117 50.25952148 C-28.78397242 44.5221997 -30.28930665 40.81011603 -33.88745117 36.25952148 C-34.36182617 35.62014648 -34.83620117 34.98077148 -35.32495117 34.32202148 C-36.94752742 32.96958277 -36.94752742 32.96958277 -39.57495117 33.57202148 C-40.33807617 33.79889648 -41.10120117 34.02577148 -41.88745117 34.25952148 C-41.45796006 37.15858651 -40.91294947 38.23325051 -38.82495117 40.38452148 C-36.02203652 44.54368517 -36.04628802 48.37747653 -36.88745117 53.25952148 C-38.7726034 55.8358962 -40.08079974 56.85619577 -42.88745117 58.25952148 C-49.97703955 58.84063529 -49.97703955 58.84063529 -53.82495117 56.38452148 C-57.05383514 53.05779255 -57.1105519 50.84097205 -57.04370117 46.22827148 C-56.8505409 43.79445202 -56.33051873 42.23424551 -54.88745117 40.25952148 C-53.89745117 39.59952148 -52.90745117 38.93952148 -51.88745117 38.25952148 C-52.21745117 36.60952148 -52.54745117 34.95952148 -52.88745117 33.25952148 C-56.9079196 33.25952148 -58.00471458 34.52092172 -60.88745117 37.25952148 Z M-34.88745117 68.25952148 C-37.14181854 71.90180898 -37.27771822 75.20417572 -37.52026367 79.43139648 C-37.56182587 80.11381409 -37.60338806 80.79623169 -37.64620972 81.49932861 C-37.77647464 83.66900232 -37.89462635 85.83914022 -38.01245117 88.00952148 C-38.09889118 89.48482897 -38.18612197 90.96009034 -38.27416992 92.43530273 C-38.48775985 96.04288679 -38.69049534 99.6509867 -38.88745117 103.25952148 C-35.30963143 105.04843136 -31.6906937 102.91801769 -28.05786133 101.71850586 C-18.79859722 98.42182982 -10.41072761 92.61911541 -3.88745117 85.25952148 C-3.88745117 84.26952148 -3.88745117 83.27952148 -3.88745117 82.25952148 C-7.97846468 80.26071926 -12.07191323 78.26702847 -16.16772461 76.27807617 C-17.56131369 75.60044754 -18.95422162 74.92141625 -20.34643555 74.2409668 C-22.34531961 73.26430407 -24.34658254 72.29267804 -26.34838867 71.32202148 C-26.9724057 71.01578857 -27.59642273 70.70955566 -28.23934937 70.39404297 C-31.41768804 68.7752437 -31.41768804 68.7752437 -34.88745117 68.25952148 Z M-62.35180664 69.19995117 C-63.30974121 69.68882813 -64.26767578 70.17770508 -65.25463867 70.68139648 C-66.30522461 71.21249023 -67.35581055 71.74358398 -68.43823242 72.29077148 C-69.53522461 72.85795898 -70.6322168 73.42514648 -71.76245117 74.00952148 C-72.85170898 74.56124023 -73.9409668 75.11295898 -75.06323242 75.68139648 C-79.76460247 78.07523974 -84.38665325 80.50317923 -88.88745117 83.25952148 C-88.40337383 87.45485848 -86.25603972 89.04050078 -83.07495117 91.63452148 C-74.49255638 98.38259615 -65.77146337 102.86290045 -54.88745117 104.25952148 C-54.53104386 92.47827988 -55.62804413 80.95927895 -56.88745117 69.25952148 C-59.81209799 67.93259256 -59.81209799 67.93259256 -62.35180664 69.19995117 Z " fill="#F9A31A" transform="translate(492.887451171875,54.740478515625)"/>
<path d="M0 0 C0.99 0.37125 0.99 0.37125 2 0.75 C3.17375506 4.19953569 3.06451911 5.5907896 1.671875 9.02734375 C1.03897444 10.25142069 0.39789489 11.47129291 -0.25 12.6875 C-5.99781901 24.32172575 -8.94854252 35.98018015 -5 48.75 C-3.38244525 53.0232287 -1.58705014 57.21314564 0.34301758 61.35424805 C0.87511841 62.51307495 0.87511841 62.51307495 1.41796875 63.6953125 C1.90946411 64.72422607 1.90946411 64.72422607 2.41088867 65.77392578 C3.11522624 68.13650692 2.78929788 69.44806887 2 71.75 C-1.32082654 72.88866194 -2.91091973 72.66969573 -6.0546875 71.16796875 C-6.82772217 70.81331543 -7.60075684 70.45866211 -8.3972168 70.09326172 C-9.21488525 69.71186035 -10.03255371 69.33045898 -10.875 68.9375 C-20.1336061 64.83886346 -30.94292916 60.39390017 -41.11328125 63.890625 C-52.06570321 68.87930581 -60.89853321 77.02437319 -70 84.75 C-65.51856939 87.7376204 -61.25763624 87.3598858 -56 86.75 C-53.48077158 85.85134986 -51.22032942 84.80779014 -48.875 83.52734375 C-47 82.75 -47 82.75 -44 83.75 C-44.49291684 86.90466778 -45.33806482 89.63425171 -46.5625 92.5625 C-48.46158949 97.58286529 -49.06121841 102.07484527 -47.0625 107.11328125 C-46.33777705 108.65080111 -45.57821126 110.17260788 -44.77734375 111.671875 C-43.85526514 114.13692938 -44.12675848 115.31151426 -45 117.75 C-49.52448129 117.1699383 -53.44004406 115.93853332 -57.65625 114.2734375 C-61.76420287 113.35599469 -64.90205662 114.13251258 -68.53515625 116.17578125 C-75.65973847 121.49444155 -82.1265943 127.32708596 -88.57958984 133.42236328 C-90.34901503 135.07621928 -92.16472556 136.66973211 -94 138.25 C-97.52789242 141.30155252 -100.95347276 144.45549721 -104.375 147.625 C-108.42166592 151.37186952 -112.47433032 155.11080426 -116.5625 158.8125 C-117.32691406 159.50472656 -118.09132813 160.19695312 -118.87890625 160.91015625 C-120.85734139 162.62625745 -122.88329692 164.20927055 -125 165.75 C-125.66 165.42 -126.32 165.09 -127 164.75 C-122.23321287 158.74737917 -117.41178017 153.00064487 -111.9140625 147.65625 C-104.05204035 139.87305589 -104.05204035 139.87305589 -98 130.75 C-103.77057356 131.11879605 -106.96360355 132.73640371 -111.125 136.5625 C-111.67849121 137.05097412 -112.23198242 137.53944824 -112.80224609 138.04272461 C-114.55057754 139.59528836 -116.27721901 141.16916372 -118 142.75 C-118.55558594 143.25595703 -119.11117187 143.76191406 -119.68359375 144.28320312 C-124.01673175 148.23400542 -128.30510372 152.23222528 -132.58984375 156.23535156 C-134.09748575 157.64054158 -135.61065307 159.03954334 -137.125 160.4375 C-137.99382813 161.24574219 -138.86265625 162.05398437 -139.7578125 162.88671875 C-142 164.75 -142 164.75 -145 165.75 C-143.51151188 162.35655558 -141.5673138 159.96770033 -139.0625 157.25 C-138.26199219 156.37601563 -137.46148438 155.50203125 -136.63671875 154.6015625 C-135.76660156 153.66054687 -134.89648438 152.71953125 -134 151.75 C-119.13242217 138.22641721 -119.13242217 138.22641721 -111 121.75 C-111.4125 122.13744385 -111.825 122.5248877 -112.25 122.92407227 C-125.9457271 135.77719116 -125.9457271 135.77719116 -131.921875 140.921875 C-134.78514968 143.44069558 -137.57767015 146.03337975 -140.375 148.625 C-165.57283679 171.9409456 -165.57283679 171.9409456 -171 173.75 C-169.49524133 168.46819608 -166.03536677 165.27192775 -162.3125 161.4375 C-161.02908049 160.0906698 -159.7465171 158.74302324 -158.46484375 157.39453125 C-157.85624512 156.75725098 -157.24764648 156.1199707 -156.62060547 155.46337891 C-154.82008612 153.55978674 -153.08191498 151.61285361 -151.375 149.625 C-147.86451482 145.54716368 -144.20150074 141.61574736 -140.54467773 137.66967773 C-136.75070287 133.57251649 -133.00430511 129.43563517 -129.27734375 125.27734375 C-126.70190225 122.41917797 -124.10314236 119.58289739 -121.5 116.75 C-118.14706883 113.10072829 -114.81001643 109.43830402 -111.5 105.75 C-108.18998226 102.06169452 -104.85280417 98.39938947 -101.5 94.75 C-94.23375339 86.83741595 -87.04549634 78.86024981 -80 70.75 C-85.72444701 68.40456685 -90.91600657 66.63334655 -97 68.75 C-105.78255277 73.03787113 -112.59937753 79.72820197 -119.57958984 86.40625 C-121.34232697 88.07385143 -123.15940839 89.66902868 -125 91.25 C-129.11360146 94.80817847 -133.09095275 98.5084212 -137.07983398 102.20483398 C-141.17784658 105.99968483 -145.31434652 109.74821379 -149.4765625 113.47265625 C-151.80606057 115.57497417 -154.11030273 117.70258126 -156.41088867 119.83642578 C-162.41584136 125.396745 -168.59806309 130.64609361 -175 135.75 C-175.66 135.42 -176.32 135.09 -177 134.75 C-171.02694343 127.06798558 -164.5652664 119.97382404 -157.84960938 112.94165039 C-154.02709942 108.93413472 -150.3152448 104.86145447 -146.68798828 100.67651367 C-144.02577986 97.63811526 -141.26286958 94.69661645 -138.5 91.75 C-133.90761264 86.82443562 -129.3889708 81.85832493 -125 76.75 C-124.01870345 75.63369748 -123.03688111 74.51785706 -122.0546875 73.40234375 C-120.97368671 72.16429961 -119.89295967 70.92601641 -118.8125 69.6875 C-118.30066162 69.10935547 -117.78882324 68.53121094 -117.26147461 67.93554688 C-112.12539555 62.0119525 -108.24124639 56.68836319 -108.52734375 48.578125 C-109.29341788 43.99434258 -111.06395776 39.88031962 -112.90625 35.6328125 C-114 32.75 -114 32.75 -114 28.75 C-108.91530509 28.22849283 -105.60742996 29.59478429 -101.1484375 31.77734375 C-94.72928414 34.68346954 -88.98256523 34.2671502 -82.4375 31.875 C-80.62205195 31.174257 -78.80924257 30.46661264 -77 29.75 C-75.02179902 29.02118911 -73.02902207 28.32228828 -71 27.75 C-70.34 28.08 -69.68 28.41 -69 28.75 C-69.41470521 32.68969948 -70.43497183 35.80939058 -72.0625 39.375 C-74.44640525 45.09637261 -74.77289648 50.62075119 -74 56.75 C-73.06699025 59.0266174 -73.06699025 59.0266174 -72 60.75 C-63.86833448 50.67491756 -58.94384877 43.50996666 -60.3515625 30.16796875 C-61.66902889 23.22349232 -64.4002227 16.82824447 -67.6484375 10.578125 C-69.17853732 7.37641323 -69.32618094 5.25644509 -69 1.75 C-68 0.75 -68 0.75 -65.3203125 0.51171875 C-61.52182596 0.78431602 -59.24866161 1.82493744 -55.875 3.5625 C-44.12747297 9.18319887 -33.31389091 11.6035725 -20.5703125 7.69921875 C-15.70505742 5.88457973 -11.07013412 3.83584145 -6.5 1.375 C-3 -0.25 -3 -0.25 0 0 Z M-81.1953125 93.56640625 C-81.82550293 94.16291992 -82.45569336 94.75943359 -83.10498047 95.37402344 C-83.77158691 96.0137207 -84.43819336 96.65341797 -85.125 97.3125 C-86.48342102 98.60126671 -87.84278762 99.8890375 -89.203125 101.17578125 C-89.85732422 101.79533691 -90.51152344 102.41489258 -91.18554688 103.05322266 C-93.94142351 105.63036778 -96.79087462 108.08952241 -99.6796875 110.515625 C-101.13751383 111.73507446 -101.13751383 111.73507446 -102 113.75 C-97.80530429 113.15075776 -93.99000166 112.17500059 -90 110.75 C-90.495 111.925625 -90.99 113.10125 -91.5 114.3125 C-93.02999347 118.34220111 -93.26741355 121.47138314 -93 125.75 C-89.06260102 124.21432511 -87.14703592 121.778822 -84.5625 118.5 C-83.78003906 117.51515625 -82.99757813 116.5303125 -82.19140625 115.515625 C-81.46824219 114.60296875 -80.74507812 113.6903125 -80 112.75 C-79.00482943 111.5792111 -78.00602517 110.41147512 -77 109.25 C-73.72495391 105.15619239 -73.73999929 101.86334737 -74 96.75 C-74.91114536 93.42813829 -74.91114536 93.42813829 -76 90.75 C-78.70763924 90.75 -79.25832801 91.71501456 -81.1953125 93.56640625 Z " fill="#F16422" transform="translate(775,17.25)"/>
<path d="M0 0 C0.92135742 -0.0213501 1.84271484 -0.0427002 2.79199219 -0.06469727 C11.6362073 -0.10798953 19.96616002 1.2759634 26.53515625 7.59765625 C31.26342549 13.16884814 32.05431192 20.18287886 31.9375 27.25 C31.06411537 35.04151028 27.81241308 39.00007015 21.80078125 43.8515625 C21.18589844 44.31304687 20.57101563 44.77453125 19.9375 45.25 C22.26882614 52.87979465 25.45460996 59.95059327 28.88476562 67.140625 C29.27728516 67.98625 29.66980469 68.831875 30.07421875 69.703125 C30.43217529 70.45754883 30.79013184 71.21197266 31.15893555 71.98925781 C32.03425734 74.53095733 32.07780527 76.58037596 31.9375 79.25 C29.66770335 79.35794277 27.39644804 79.43556176 25.125 79.5 C23.86042969 79.54640625 22.59585938 79.5928125 21.29296875 79.640625 C17.9375 79.25 17.9375 79.25 16.39648438 77.59179688 C14.74145937 74.93533773 13.48382257 72.26269675 12.23828125 69.390625 C11.75166016 68.27558594 11.26503906 67.16054687 10.76367188 66.01171875 C10.26416016 64.85285156 9.76464844 63.69398437 9.25 62.5 C8.73888672 61.32566406 8.22777344 60.15132812 7.70117188 58.94140625 C6.44192163 56.04630756 5.18908986 53.14841861 3.9375 50.25 C-2.9925 49.755 -2.9925 49.755 -10.0625 49.25 C-10.0625 59.15 -10.0625 69.05 -10.0625 79.25 C-14.6825 79.25 -19.3025 79.25 -24.0625 79.25 C-24.0625 53.84 -24.0625 28.43 -24.0625 2.25 C-17.26817236 -1.14716382 -7.45747229 0.09062466 0 0 Z M-10.0625 14.25 C-10.0625 21.51 -10.0625 28.77 -10.0625 36.25 C-7.38125 36.311875 -4.7 36.37375 -1.9375 36.4375 C-0.68815674 36.47846802 -0.68815674 36.47846802 0.58642578 36.52026367 C6.28322394 36.58347081 9.94810162 35.20857135 14.75 32.0625 C16.74355418 29.01970678 17.17276928 25.8059271 16.9375 22.25 C14.96940926 18.45439642 13.4941917 16.6211278 9.9375 14.25 C7.71264259 13.97521627 7.71264259 13.97521627 5.26953125 14.0546875 C4.0626062 14.06218018 4.0626062 14.06218018 2.83129883 14.06982422 C1.81447021 14.08803223 0.7976416 14.10624023 -0.25 14.125 C-5.1071875 14.186875 -5.1071875 14.186875 -10.0625 14.25 Z " fill="#0D4C93" transform="translate(38.0625,56.75)"/>
<path d="M0 0 C-0.41470521 3.93969948 -1.43497183 7.05939058 -3.0625 10.625 C-6.3164267 18.57506999 -6.00402858 25.95536692 -3 33.9375 C-2.443125 35.21947266 -2.443125 35.21947266 -1.875 36.52734375 C-0.93713266 39.17765636 -0.84032532 41.21068286 -1 44 C-5.34130315 43.38726352 -9.23704419 42.30775468 -13.375 40.875 C-20.11283582 38.80944173 -24.10664142 38.08099862 -30.47265625 41.21875 C-38.07552666 45.68201781 -44.25063216 51.60126463 -50.57958984 57.65625 C-52.34232697 59.32385143 -54.15940839 60.91902868 -56 62.5 C-60.11360146 66.05817847 -64.09095275 69.7584212 -68.07983398 73.45483398 C-72.17784658 77.24968483 -76.31434652 80.99821379 -80.4765625 84.72265625 C-82.80606057 86.82497417 -85.11030273 88.95258126 -87.41088867 91.08642578 C-93.41584136 96.646745 -99.59806309 101.89609361 -106 107 C-106.66 106.67 -107.32 106.34 -108 106 C-102.02694343 98.31798558 -95.5652664 91.22382404 -88.84960938 84.19165039 C-85.02709942 80.18413472 -81.3152448 76.11145447 -77.68798828 71.92651367 C-75.02577986 68.88811526 -72.26286958 65.94661645 -69.5 63 C-64.90761264 58.07443562 -60.3889708 53.10832493 -56 48 C-55.01870345 46.88369748 -54.03688111 45.76785706 -53.0546875 44.65234375 C-51.97368671 43.41429961 -50.89295967 42.17601641 -49.8125 40.9375 C-49.30066162 40.35935547 -48.78882324 39.78121094 -48.26147461 39.18554688 C-43.12539555 33.2619525 -39.24124639 27.93836319 -39.52734375 19.828125 C-40.29341788 15.24434258 -42.06395776 11.13031962 -43.90625 6.8828125 C-45 4 -45 4 -45 0 C-39.91530509 -0.52150717 -36.60742996 0.84478429 -32.1484375 3.02734375 C-25.70902457 5.9426416 -19.94498109 5.5036338 -13.375 3.125 C-10.66640861 2.07726407 -7.99884189 0.99947731 -5.3515625 -0.1953125 C-3 -1 -3 -1 0 0 Z " fill="#00A9B8" transform="translate(706,46)"/>
<path d="M0 0 C1.79158489 -0.02696365 3.58328473 -0.04637917 5.375 -0.0625 C6.37273437 -0.07410156 7.37046875 -0.08570312 8.3984375 -0.09765625 C11 0 11 0 13 1 C13.87866819 3.77811135 14.64084327 6.51722106 15.34765625 9.33984375 C15.56441513 10.17713516 15.78117401 11.01442657 16.00450134 11.87709045 C16.69816084 14.56199055 17.38074195 17.24955556 18.0625 19.9375 C18.74982758 22.62131628 19.43942353 25.30452764 20.13121033 27.98719788 C20.56164076 29.65913442 20.98910006 31.33183915 21.41334534 33.00535583 C22.41943429 37.10401995 22.41943429 37.10401995 24 41 C24.29245605 39.86457764 24.58491211 38.72915527 24.88623047 37.55932617 C25.97260248 33.34786298 27.06646244 29.13837501 28.16259766 24.92944336 C28.63599917 23.10738292 29.10736724 21.2847929 29.57666016 19.46166992 C30.2514941 16.84151655 30.93361358 14.22335361 31.6171875 11.60546875 C31.82560272 10.78974899 32.03401794 9.97402924 32.24874878 9.1335907 C33.16280923 5.65857352 33.99019174 3.01471239 36 0 C38.8203125 -0.29296875 38.8203125 -0.29296875 42.125 -0.1875 C43.76855469 -0.14689453 43.76855469 -0.14689453 45.4453125 -0.10546875 C46.70988281 -0.05326172 46.70988281 -0.05326172 48 0 C49.18923949 3.56771847 48.72751375 4.92039152 47.80004883 8.52197266 C47.51257278 9.65390045 47.22509674 10.78582825 46.9289093 11.95205688 C46.60818954 13.17701874 46.28746979 14.40198059 45.95703125 15.6640625 C45.63216232 16.9258432 45.3072934 18.1876239 44.97257996 19.48764038 C44.28259079 22.16392436 43.58664739 24.83856982 42.88647461 27.51220703 C41.99577547 30.91517079 41.11943096 34.32162893 40.24760914 37.72947121 C39.40848923 41.00135431 38.55722751 44.27003989 37.70703125 47.5390625 C37.39643265 48.75187897 37.08583405 49.96469543 36.76582336 51.21426392 C31.9784653 69.38318646 31.9784653 69.38318646 25 75 C20.65013849 77.30889388 16.7155752 77.12664021 11.9375 76.75 C11.23044922 76.71003906 10.52339844 76.67007813 9.79492188 76.62890625 C2.76598448 76.1405106 2.76598448 76.1405106 0 74 C-0.64453125 72.125 -0.64453125 72.125 -0.8125 70 C-0.88082031 69.29875 -0.94914062 68.5975 -1.01953125 67.875 C-1 66 -1 66 0 64 C1.42892578 64.01740234 1.42892578 64.01740234 2.88671875 64.03515625 C4.14097656 64.04417969 5.39523437 64.05320312 6.6875 64.0625 C7.92886719 64.07410156 9.17023438 64.08570313 10.44921875 64.09765625 C13.46235454 64.01478673 16.08275339 63.70839449 19 63 C19.33 61.35 19.66 59.7 20 58 C19.071875 57.773125 18.14375 57.54625 17.1875 57.3125 C13.23586832 55.68535754 12.84584858 54.81062757 11 51 C9.86417016 47.5801376 8.95110405 44.11231417 8.046875 40.625 C7.78239563 39.62291504 7.51791626 38.62083008 7.24542236 37.58837891 C6.69021029 35.4746804 6.13908804 33.3599039 5.59179688 31.24414062 C4.75205694 28.0079271 3.89246912 24.77742983 3.03125 21.546875 C2.49358045 19.48989955 1.95708219 17.43261751 1.421875 15.375 C1.16363953 14.41029785 0.90540405 13.4455957 0.63934326 12.45166016 C0.40870178 11.54722168 0.1780603 10.6427832 -0.05957031 9.7109375 C-0.36909637 8.52443604 -0.36909637 8.52443604 -0.68487549 7.31396484 C-1.04819605 4.64609557 -0.6575293 2.59535539 0 0 Z " fill="#0D4C93" transform="translate(274,79)"/>
<path d="M0 0 C5.60527376 5.31782383 7.20866067 9.81934357 7.52716064 17.4647522 C7.56901446 19.86909627 7.5761592 22.27108459 7.5703125 24.67578125 C7.57126923 25.54897507 7.57222595 26.42216888 7.57321167 27.32182312 C7.57388856 29.15473503 7.57206871 30.98764941 7.56787109 32.82055664 C7.56248338 35.63368031 7.56784924 38.44664666 7.57421875 41.25976562 C7.57355851 43.04427119 7.57227849 44.82877665 7.5703125 46.61328125 C7.57233673 47.45595047 7.57436096 48.29861969 7.57644653 49.16682434 C7.55248093 55.08253814 7.55248093 55.08253814 6.4375 57.3125 C5.02047487 57.17019192 3.6038904 57.02349254 2.1875 56.875 C1.39859375 56.79378906 0.6096875 56.71257812 -0.203125 56.62890625 C-2.5625 56.3125 -2.5625 56.3125 -4.48046875 55.68359375 C-7.46960834 55.15082028 -9.71774654 55.99295832 -12.625 56.8125 C-19.93757875 58.60568579 -26.39719877 58.90772175 -33.5 56.1875 C-37.77685744 52.29944778 -39.35391099 49.43779028 -39.9140625 43.73046875 C-40.05707729 37.10628384 -40.15929589 32.06905417 -36.5625 26.3125 C-28.23640777 20.43525843 -16.49568178 20.12683305 -6.5625 20.3125 C-7.2225 17.6725 -7.8825 15.0325 -8.5625 12.3125 C-17.4725 12.3125 -26.3825 12.3125 -35.5625 12.3125 C-36.87015478 8.38953567 -36.7596417 5.45247567 -36.5625 1.3125 C-33.62056859 -1.62943141 -30.22013053 -1.46309693 -26.25 -1.875 C-25.44272461 -1.95959473 -24.63544922 -2.04418945 -23.80371094 -2.13134766 C-15.68619377 -2.89548175 -7.52467207 -3.56431835 0 0 Z M-16.625 31.625 C-17.46160156 31.68300781 -18.29820312 31.74101563 -19.16015625 31.80078125 C-22.02835391 32.41173067 -23.48051532 33.25406719 -25.5625 35.3125 C-26.22599794 37.24350917 -26.22599794 37.24350917 -26.125 39.3125 C-26.14691406 39.993125 -26.16882813 40.67375 -26.19140625 41.375 C-25.67840781 43.53231673 -25.67840781 43.53231673 -23.44921875 45.109375 C-19.79840644 46.63095848 -17.67544544 46.27915504 -13.8125 45.5625 C-12.08773437 45.26085937 -12.08773437 45.26085937 -10.328125 44.953125 C-7.66743954 44.59387258 -7.66743954 44.59387258 -6.5625 43.3125 C-6.49005947 41.29285801 -6.47872812 39.27082876 -6.5 37.25 C-6.50902344 36.14527344 -6.51804687 35.04054687 -6.52734375 33.90234375 C-6.53894531 33.04769531 -6.55054688 32.19304687 -6.5625 31.3125 C-9.9342663 31.28234109 -13.26311327 31.35999811 -16.625 31.625 Z " fill="#0D4C93" transform="translate(215.5625,79.6875)"/>
<path d="M0 0 C7.60466202 8.15325704 7.82181496 18.45504256 7.71875 28.98828125 C7.39617049 37.01881321 5.72584706 43.36806391 0.5703125 49.68359375 C-5.32791239 54.77751525 -12.74409988 56.1148077 -20.390625 55.87109375 C-28.24121881 55.14920007 -33.84662336 53.16428463 -39.6171875 47.55859375 C-46.07545017 37.31445296 -45.66671256 24.13659832 -43.9609375 12.48046875 C-42.51289832 6.86069763 -39.89697771 2.43068998 -35.4296875 -1.31640625 C-24.93880782 -6.93652036 -9.78339543 -7.66745176 0 0 Z M-27.4296875 10.68359375 C-31.42586533 17.87671385 -31.53098459 26.20271988 -29.92578125 34.19140625 C-28.90654671 37.34812121 -27.69078667 39.44487451 -25.2421875 41.68359375 C-20.39520945 43.40696372 -16.2940805 43.4941994 -11.5546875 41.43359375 C-7.58634385 38.16554604 -6.99487744 34.67610489 -6.4296875 29.68359375 C-5.88719652 22.8378742 -6.37011902 15.58409626 -10.765625 9.98046875 C-15.63125759 6.1884734 -22.83165122 7.07085095 -27.4296875 10.68359375 Z " fill="#0D4C93" transform="translate(121.4296875,82.31640625)"/>
<path d="M0 0 C1.32229189 2.64458379 1.09677194 4.67761301 1.0625 7.625 C1.05347656 8.62789062 1.04445312 9.63078125 1.03515625 10.6640625 C1.02355469 11.43492188 1.01195312 12.20578125 1 13 C1.99902344 12.98839844 2.99804688 12.97679688 4.02734375 12.96484375 C5.31769531 12.95582031 6.60804688 12.94679688 7.9375 12.9375 C9.22527344 12.92589844 10.51304687 12.91429688 11.83984375 12.90234375 C15 13 15 13 16 14 C16.09823937 15.66429051 16.12973631 17.33281931 16.125 19 C16.12886719 20.36125 16.12886719 20.36125 16.1328125 21.75 C16 24 16 24 15 25 C12.64686445 25.07271741 10.29166332 25.08370868 7.9375 25.0625 C6.64714844 25.05347656 5.35679687 25.04445313 4.02734375 25.03515625 C3.02832031 25.02355469 2.02929688 25.01195313 1 25 C1.11797018 29.39675988 1.24219726 33.79328399 1.37231445 38.18969727 C1.41571813 39.68639269 1.45738913 41.18313939 1.49731445 42.67993164 C1.55488616 44.82714312 1.61861716 46.97409521 1.68359375 49.12109375 C1.72025146 50.4145874 1.75690918 51.70808105 1.79467773 53.04077148 C1.6667278 55.88555008 1.6667278 55.88555008 3 57 C4.99603206 57.20888708 6.99742941 57.36775477 9 57.5 C14.88888889 57.88888889 14.88888889 57.88888889 16 59 C16.09851171 60.83115883 16.12972629 62.66619933 16.125 64.5 C16.12886719 66.00046875 16.12886719 66.00046875 16.1328125 67.53125 C16 70 16 70 15 71 C7.0387183 72.49274032 -1.861943 73.57504362 -9 69 C-12.85188489 63.82475752 -13.56419017 58.6168184 -13.390625 52.34375 C-13.38496521 51.55601196 -13.37930542 50.76827393 -13.37347412 49.95666504 C-13.35129902 47.47045966 -13.30114337 44.98576072 -13.25 42.5 C-13.22991039 40.80210433 -13.21166396 39.10418579 -13.1953125 37.40625 C-13.1514969 33.27026361 -13.08260605 29.1353861 -13 25 C-14.7015625 25.0309375 -14.7015625 25.0309375 -16.4375 25.0625 C-20 25 -20 25 -21 24 C-21.09823937 22.33570949 -21.12973631 20.66718069 -21.125 19 C-21.12757813 18.0925 -21.13015625 17.185 -21.1328125 16.25 C-21 14 -21 14 -20 13 C-17.66702567 12.95907063 -15.33294775 12.95758277 -13 13 C-13 9.7 -13 6.4 -13 3 C-8.37802694 0.78145293 -5.23175837 -0.38281159 0 0 Z " fill="#0D4C93" transform="translate(154,66)"/>
<path d="M0 0 C-0.49291684 3.15466778 -1.33806482 5.88425171 -2.5625 8.8125 C-4.46158949 13.83286529 -5.06121841 18.32484527 -3.0625 23.36328125 C-2.33777705 24.90080111 -1.57821126 26.42260788 -0.77734375 27.921875 C0.14473486 30.38692938 -0.12675848 31.56151426 -1 34 C-5.52448129 33.4199383 -9.44004406 32.18853332 -13.65625 30.5234375 C-17.76420287 29.60599469 -20.90205662 30.38251258 -24.53515625 32.42578125 C-31.65973847 37.74444155 -38.1265943 43.57708596 -44.57958984 49.67236328 C-46.34901503 51.32621928 -48.16472556 52.91973211 -50 54.5 C-53.52789242 57.55155252 -56.95347276 60.70549721 -60.375 63.875 C-64.42166592 67.62186952 -68.47433032 71.36080426 -72.5625 75.0625 C-73.70912109 76.10083984 -73.70912109 76.10083984 -74.87890625 77.16015625 C-76.85734139 78.87625745 -78.88329692 80.45927055 -81 82 C-81.66 81.67 -82.32 81.34 -83 81 C-78.23201144 74.99586626 -73.40908753 69.24822326 -67.91015625 63.90234375 C-65.9579163 61.95808842 -64.12692423 59.94806785 -62.3125 57.875 C-61.74144531 57.22402344 -61.17039062 56.57304687 -60.58203125 55.90234375 C-58.9925365 54.04656918 -58.9925365 54.04656918 -57.69921875 52.12890625 C-56.5 50.4375 -56.5 50.4375 -54 48 C-50.1875 48.125 -50.1875 48.125 -47 49 C-47.350625 48.05125 -47.70125 47.1025 -48.0625 46.125 C-48.50742366 43.10195707 -48.11257332 42.15807062 -46.30859375 39.625 C-44.73026626 37.91581287 -43.12589521 36.23040837 -41.5 34.56640625 C-39.15895163 32.16317378 -37.06284347 29.7055182 -35 27.0625 C-34.443125 26.35222656 -33.88625 25.64195313 -33.3125 24.91015625 C-30.64752593 21.0316672 -30.7045823 17.57897429 -31 13 C-31.71588039 10.65460183 -32.53147254 8.3901376 -33.44140625 6.11328125 C-34.0824294 3.68815172 -33.79970082 2.34614213 -33 0 C-32.40574219 0.2165625 -31.81148437 0.433125 -31.19921875 0.65625 C-22.89687636 3.44521727 -15.16119579 4.74693985 -7 0.9375 C-5.948125 0.36322266 -5.948125 0.36322266 -4.875 -0.22265625 C-3 -1 -3 -1 0 0 Z " fill="#F9A51F" transform="translate(731,101)"/>
<path d="M0 0 C1 1 1 1 1.09765625 3.28515625 C1.08605469 4.20167969 1.07445312 5.11820312 1.0625 6.0625 C1.05347656 6.98160156 1.04445313 7.90070313 1.03515625 8.84765625 C1.02355469 9.55792969 1.01195312 10.26820312 1 11 C-0.89564426 11.79211929 -2.79152371 12.58367576 -4.6875 13.375 C-5.74324219 13.81585938 -6.79898437 14.25671875 -7.88671875 14.7109375 C-10.58361504 15.82759468 -13.2887977 16.91873474 -16 18 C-15.99476318 19.145896 -15.98952637 20.29179199 -15.98413086 21.47241211 C-15.96608283 25.70840682 -15.95456872 29.94439812 -15.94506836 34.18041992 C-15.94002769 36.01668875 -15.93319523 37.85295354 -15.92456055 39.68920898 C-15.91248328 42.32276401 -15.90676919 44.95626616 -15.90234375 47.58984375 C-15.89718246 48.41588608 -15.89202118 49.24192841 -15.88670349 50.09300232 C-15.88650795 52.06236368 -15.93795848 54.03161614 -16 56 C-16.495 56.495 -16.495 56.495 -17 57 C-21.29 57 -25.58 57 -30 57 C-30 38.19 -30 19.38 -30 0 C-25.71 0 -21.42 0 -17 0 C-16.67 1.32 -16.34 2.64 -16 4 C-15.46890625 3.72285156 -14.9378125 3.44570312 -14.390625 3.16015625 C-13.68421875 2.79792969 -12.9778125 2.43570313 -12.25 2.0625 C-11.55390625 1.70285156 -10.8578125 1.34320313 -10.140625 0.97265625 C-6.43369402 -0.71169742 -3.90916412 -1.34798763 0 0 Z " fill="#0D4C93" transform="translate(266,79)"/>
<path d="M0 0 C19.13793103 0 19.13793103 0 26.9375 4.8125 C31.8525994 10.02548421 33.33223282 15.84344172 33.21484375 22.84765625 C32.70328139 27.97258094 30.94091991 31.85563795 27.6875 35.8125 C18.95161488 42.92310417 11.45386645 42 0 42 C0 28.14 0 14.28 0 0 Z M5 5 C5 15.56 5 26.12 5 37 C16.5976463 37.37149952 16.5976463 37.37149952 24.8125 31.375 C27.71877502 27.57521001 28.26316162 23.70501071 28 19 C26.8304658 12.78476109 24.13851365 9.53272813 19 6 C14.78779356 4.4202491 14.78779356 4.4202491 5 5 Z " fill="#0F6EB6" transform="translate(0,176)"/>
<path d="M0 0 C1.2684375 0.495 1.2684375 0.495 2.5625 1 C8.33664461 2.67975116 12.5449532 2.35893916 18 0 C19.32 0 20.64 0 22 0 C21.47731534 2.76276177 20.89130413 5.3260876 20 8 C19.81594846 12.78533998 20.22910591 17.27827368 21 22 C20.14019531 21.80019531 19.28039062 21.60039062 18.39453125 21.39453125 C12.74634562 20.47677808 8.6976858 20.01132451 3.6328125 22.9609375 C0.78727637 25.25189018 -1.81450055 27.78471694 -4.38232422 30.37988281 C-6.51470148 32.51547827 -8.74307936 34.53404835 -10.97680664 36.5625 C-14.21024995 39.505216 -17.39518629 42.50066237 -20.58984375 45.48535156 C-22.09748575 46.89054158 -23.61065307 48.28954334 -25.125 49.6875 C-26.42824219 50.89986328 -26.42824219 50.89986328 -27.7578125 52.13671875 C-30 54 -30 54 -33 55 C-31.51151188 51.60655558 -29.5673138 49.21770033 -27.0625 46.5 C-25.86173828 45.18902344 -25.86173828 45.18902344 -24.63671875 43.8515625 C-23.33154297 42.44003906 -23.33154297 42.44003906 -22 41 C-12.84648902 31.13594671 -12.84648902 31.13594671 -4 21 C-3.49339844 20.41863281 -2.98679687 19.83726562 -2.46484375 19.23828125 C0.02908215 16.14692463 1.3168817 13.90063573 1.4375 9.875 C1.053819 6.47668261 0.51755598 4.03511195 -1 1 C-0.67 0.67 -0.34 0.34 0 0 Z " fill="#106DB4" transform="translate(663,128)"/>
<path d="M0 0 C3.13839632 1.87311401 5.48092297 4.37334672 8 7 C8.97926852 7.97387682 9.96120985 8.94507083 10.9453125 9.9140625 C13.65287576 12.58753307 16.33160466 15.28745841 19 18 C17 19 17 19 13.91015625 18.00390625 C12.62727413 17.52431943 11.34474265 17.04379393 10.0625 16.5625 C0.87446679 13.34103572 -7.13408773 12.37024535 -16.26953125 16.48046875 C-25.35282567 21.53540656 -33.42827393 27.99945904 -40.81640625 35.28515625 C-43.25128894 37.19734498 -44.9557287 37.65223614 -48 38 C-43.93739274 33.13213357 -39.68913884 28.52960484 -35.2109375 24.04296875 C-34.58522858 23.41393143 -33.95951965 22.7848941 -33.31484985 22.13679504 C-32.00352353 20.8204446 -30.69087481 19.50541027 -29.37695312 18.19165039 C-27.36819673 16.18068926 -25.36759805 14.16183738 -23.3671875 12.14257812 C-22.08642702 10.85888641 -20.80519358 9.57566637 -19.5234375 8.29296875 C-18.92856537 7.6909111 -18.33369324 7.08885345 -17.72079468 6.46855164 C-17.15986115 5.91069473 -16.59892761 5.35283783 -16.02099609 4.77807617 C-15.53279388 4.28844894 -15.04459167 3.79882172 -14.54159546 3.2943573 C-10.18176772 -0.36624952 -5.50181094 -1.15154182 0 0 Z " fill="#DE4A27" transform="translate(746,63)"/>
<path d="M0 0 C0 9.24 0 18.48 0 28 C1.65 28 3.3 28 5 28 C5 29.32 5 30.64 5 32 C3.35 32 1.7 32 0 32 C0 35.3 0 38.6 0 42 C-1.65 42 -3.3 42 -5 42 C-5 38.7 -5 35.4 -5 32 C-11.6 32 -18.2 32 -25 32 C-23.90101558 24.30710905 -21.26890875 19.9792692 -17.04589844 13.79077148 C-15.87258894 12.05894122 -14.7411345 10.30410177 -13.609375 8.54492188 C-12.86438372 7.43588097 -12.11706499 6.32839921 -11.3671875 5.22265625 C-10.36341064 3.71844116 -10.36341064 3.71844116 -9.33935547 2.18383789 C-7 0 -7 0 0 0 Z M-6 6 C-6.76558862 7.09348091 -7.48293923 8.2207933 -8.1796875 9.359375 C-8.83130859 10.41511719 -8.83130859 10.41511719 -9.49609375 11.4921875 C-9.95113281 12.23726562 -10.40617187 12.98234375 -10.875 13.75 C-15.65543275 21.54747821 -15.65543275 21.54747821 -17.8203125 24.390625 C-19.19706464 25.93627108 -19.19706464 25.93627108 -19 28 C-14.38 28 -9.76 28 -5 28 C-5 20.74 -5 13.48 -5 6 C-5.33 6 -5.66 6 -6 6 Z " fill="#0F6EB6" transform="translate(317,176)"/>
<path d="M0 0 C3.19736066 1.2717457 5.42395477 2.84790955 7 6 C8.03700379 12.82584775 6.84390605 17.66911589 3.06640625 23.39453125 C-0.88130798 28.37208398 -5.39608695 32.62066808 -10 37 C-4.06 37 1.88 37 8 37 C8 38.65 8 40.3 8 42 C-0.58 42 -9.16 42 -18 42 C-18 37 -18 37 -16.68652344 35.18237305 C-16.08356445 34.63105713 -15.48060547 34.07974121 -14.859375 33.51171875 C-14.20066406 32.88716797 -13.54195312 32.26261719 -12.86328125 31.61914062 C-12.16589844 30.98169922 -11.46851563 30.34425781 -10.75 29.6875 C-5.68760511 25.041389 -1.15119924 20.70191461 1 14 C1.1143337 10.19998135 1.1143337 10.19998135 0 7 C-3.73064844 4.51290104 -5.57631968 4.70008947 -10 5 C-13.32186171 5.91114536 -13.32186171 5.91114536 -16 7 C-16 5.35 -16 3.7 -16 2 C-11.01181889 -0.98336191 -5.63328581 -0.63177037 0 0 Z " fill="#0F6EB6" transform="translate(245,176)"/>
<path d="M0 0 C2.98697965 2.18166651 4.17872432 4.65272692 4.84375 8.1640625 C5.05095191 11.94371121 4.27551161 14.22439703 1.78125 17.1640625 C0.79125 17.4940625 -0.19875 17.8240625 -1.21875 18.1640625 C-1.21875 18.8240625 -1.21875 19.4840625 -1.21875 20.1640625 C-0.6 20.4321875 0.01875 20.7003125 0.65625 20.9765625 C2.78125 22.1640625 2.78125 22.1640625 4.78125 25.1640625 C5.25489652 29.97946874 5.27324653 32.21521205 3.03125 36.5390625 C0.78063609 39.16477872 -0.05450284 40.0309905 -3.21875 41.1640625 C-5.96817755 41.32992776 -8.59981278 41.39819471 -11.34375 41.3515625 C-12.43623047 41.3505957 -12.43623047 41.3505957 -13.55078125 41.34960938 C-18.93726504 41.30480498 -18.93726504 41.30480498 -21.21875 40.1640625 C-20.88875 38.5140625 -20.55875 36.8640625 -20.21875 35.1640625 C-19.661875 35.32648438 -19.105 35.48890625 -18.53125 35.65625 C-16.02646628 36.20628697 -13.781269 36.29687506 -11.21875 36.2890625 C-10.373125 36.29164063 -9.5275 36.29421875 -8.65625 36.296875 C-6.37176056 36.17239961 -4.40883426 35.80283707 -2.21875 35.1640625 C-1.94242732 33.73138946 -1.69855329 32.29242915 -1.46875 30.8515625 C-1.32953125 30.05105469 -1.1903125 29.25054687 -1.046875 28.42578125 C-0.98657493 26.03960872 -0.98657493 26.03960872 -2.875 24.4453125 C-5.44583026 23.03992529 -7.58697676 22.4694974 -10.46875 21.9765625 C-11.80679688 21.73873047 -11.80679688 21.73873047 -13.171875 21.49609375 C-13.84734375 21.38652344 -14.5228125 21.27695313 -15.21875 21.1640625 C-15.21875 19.8440625 -15.21875 18.5240625 -15.21875 17.1640625 C-14.07986328 17.01710937 -14.07986328 17.01710937 -12.91796875 16.8671875 C-11.92410156 16.71765625 -10.93023437 16.568125 -9.90625 16.4140625 C-8.92011719 16.27484375 -7.93398437 16.135625 -6.91796875 15.9921875 C-3.71665136 15.01001776 -2.80320995 14.07162818 -1.21875 11.1640625 C-1.21239754 8.52868742 -1.21239754 8.52868742 -2.21875 6.1640625 C-6.90625637 3.03905825 -11.84870703 3.77711671 -17.28125 4.6640625 C-17.920625 4.8290625 -18.56 4.9940625 -19.21875 5.1640625 C-19.21875 3.5140625 -19.21875 1.8640625 -19.21875 0.1640625 C-13.41814898 -1.76947117 -5.78188151 -2.17838494 0 0 Z " fill="#0F6EB6" transform="translate(214.21875,176.8359375)"/>
<path d="M0 0 C2.5181341 1.73159827 3.55526197 3.67742984 4.19140625 6.6171875 C4.42136233 10.11879137 4.48576578 12.9818216 2.5390625 15.9921875 C1.17578125 17.359375 1.17578125 17.359375 -1.32421875 19.234375 C-0.51984375 19.8325 0.28453125 20.430625 1.11328125 21.046875 C3.67578125 23.234375 3.67578125 23.234375 4.67578125 26.234375 C5.04373413 31.20173892 4.92038865 34.34084612 1.67578125 38.234375 C-3.03184961 41.13997506 -6.58600724 41.59283768 -12.07421875 41.484375 C-13.3890625 41.46890625 -14.70390625 41.4534375 -16.05859375 41.4375 C-19.32421875 41.234375 -19.32421875 41.234375 -21.32421875 40.234375 C-21.32421875 38.584375 -21.32421875 36.934375 -21.32421875 35.234375 C-20.70546875 35.399375 -20.08671875 35.564375 -19.44921875 35.734375 C-10.90553104 37.13441885 -10.90553104 37.13441885 -3.13671875 34.109375 C-1.09074137 31.35701784 -1.09074137 31.35701784 -1.07421875 28.109375 C-2.1136908 24.93219681 -2.1136908 24.93219681 -5.51171875 23.421875 C-8.81306067 22.39358817 -11.89791149 21.65221735 -15.32421875 21.234375 C-15.32421875 19.914375 -15.32421875 18.594375 -15.32421875 17.234375 C-14.56496094 17.14800781 -13.80570312 17.06164062 -13.0234375 16.97265625 C-6.91156451 16.26839598 -6.91156451 16.26839598 -2.01171875 12.921875 C-1.10526741 10.22986032 -1.10526741 10.22986032 -1.94921875 7.484375 C-3.18212003 4.92363165 -3.18212003 4.92363165 -6.32421875 4.234375 C-10.8602639 4.08805096 -14.89875696 4.12800955 -19.32421875 5.234375 C-19.32421875 3.584375 -19.32421875 1.934375 -19.32421875 0.234375 C-14.2766705 -2.28939912 -5.33365517 -1.75696876 0 0 Z " fill="#0F6EB6" transform="translate(281.32421875,176.765625)"/>
<path d="M0 0 C0.66 0 1.32 0 2 0 C2 67.65 2 135.3 2 205 C1.34 205 0.68 205 0 205 C0 137.35 0 69.7 0 0 Z " fill="#929497" transform="translate(570,0)"/>
<path d="M0 0 C3.57214098 0.60383166 6.56134017 1.62245157 9.875 3.0625 C19.24199254 6.54818734 29.57271076 6.0359067 39 3 C40.83272613 2.45628241 42.66608328 1.91468819 44.5 1.375 C46.00056026 0.91850426 47.50076525 0.46083035 49 0 C34.31305903 17.77892854 34.31305903 17.77892854 26.7734375 19.51171875 C22.62620546 19.81566898 19.97007925 19.64277007 16.44140625 17.3046875 C13.83475043 14.97049024 11.4122513 12.53419765 9 10 C7.29219268 8.33279434 5.5838875 6.66609846 3.875 5 C2.56006166 3.68961162 1.25990999 2.36338086 0 1 C0 0.67 0 0.34 0 0 Z " fill="#F68A28" transform="translate(717,25)"/>
<path d="M0 0 C2.64 0 5.28 0 8 0 C8.99 3.3 9.98 6.6 11 10 C11.99 6.7 12.98 3.4 14 0 C16.97 0 19.94 0 23 0 C23 6.6 23 13.2 23 20 C21.02 20 19.04 20 17 20 C16.505 17.525 16.505 17.525 16 15 C15.01 17.475 15.01 17.475 14 20 C12.02 20 10.04 20 8 20 C7.34 18.35 6.68 16.7 6 15 C5.67 16.65 5.34 18.3 5 20 C3.35 20 1.7 20 0 20 C0 13.4 0 6.8 0 0 Z " fill="#0F6EB6" transform="translate(801,107)"/>
<path d="M0 0 C3.10440503 1.12278077 4.56696457 2.18655165 6.76953125 4.609375 C7.66285156 5.57037109 7.66285156 5.57037109 8.57421875 6.55078125 C9.22777344 7.29134766 9.22777344 7.29134766 9.89453125 8.046875 C9.23453125 8.376875 8.57453125 8.706875 7.89453125 9.046875 C6.90453125 8.716875 5.91453125 8.386875 4.89453125 8.046875 C-2.05412937 7.05600101 -6.15432858 8.2459713 -11.81738281 12.23071289 C-15.48829901 15.14449283 -18.56539749 18.48446271 -21.66796875 21.984375 C-25.95841535 26.7661983 -30.29952154 31.23066858 -35.18823242 35.40551758 C-38.02455397 37.83370932 -40.74811658 40.37810871 -43.48046875 42.921875 C-47.52616411 46.66977126 -51.57981847 50.40769683 -55.66796875 54.109375 C-56.43238281 54.80160156 -57.19679688 55.49382812 -57.984375 56.20703125 C-59.96281014 57.92313245 -61.98876567 59.50614555 -64.10546875 61.046875 C-64.76546875 60.716875 -65.42546875 60.386875 -66.10546875 60.046875 C-61.33748019 54.04274126 -56.51455628 48.29509826 -51.015625 42.94921875 C-49.06338505 41.00496342 -47.23239298 38.99494285 -45.41796875 36.921875 C-44.84691406 36.27089844 -44.27585937 35.61992187 -43.6875 34.94921875 C-42.09800525 33.09344418 -42.09800525 33.09344418 -40.8046875 31.17578125 C-39.60546875 29.484375 -39.60546875 29.484375 -37.10546875 27.046875 C-33.29296875 27.171875 -33.29296875 27.171875 -30.10546875 28.046875 C-29.89664063 27.5003125 -29.6878125 26.95375 -29.47265625 26.390625 C-27.60111383 23.18226657 -24.98404239 20.97903222 -22.23046875 18.546875 C-18.62452363 15.32390682 -15.0919514 12.09521032 -11.7890625 8.55859375 C-11.2636084 8.00171875 -10.7381543 7.44484375 -10.19677734 6.87109375 C-9.19649768 5.80020987 -8.21037342 4.71588176 -7.24072266 3.6171875 C-4.78910208 1.01737777 -3.63707201 0.0548992 0 0 Z " fill="#F9A51F" transform="translate(714.10546875,121.953125)"/>
<path d="M0 0 C0 2.64 0 5.28 0 8 C2.64 8 5.28 8 8 8 C8 9.65 8 11.3 8 13 C5.36 13 2.72 13 0 13 C0.13857841 16.12536637 0.28709569 19.25018217 0.4375 22.375 C0.47681641 23.26445312 0.51613281 24.15390625 0.55664062 25.0703125 C0.61948242 26.34648437 0.61948242 26.34648437 0.68359375 27.6484375 C0.72025146 28.43395996 0.75690918 29.21948242 0.79467773 30.02880859 C0.890891 32.07523496 0.890891 32.07523496 2 34 C5.02934491 34.65772428 5.02934491 34.65772428 8 35 C8 36.32 8 37.64 8 39 C6.58603027 39.13595863 5.16823316 39.23243845 3.75 39.3125 C2.96109375 39.37050781 2.1721875 39.42851562 1.359375 39.48828125 C-1 39 -1 39 -3.28125 37.15625 C-5.804519 32.52261056 -5.43096564 28.36938161 -5.25 23.1875 C-5.23195313 22.20845703 -5.21390625 21.22941406 -5.1953125 20.22070312 C-5.14832887 17.81279229 -5.08265694 15.40690665 -5 13 C-6.98 13 -8.96 13 -11 13 C-11 11.35 -11 9.7 -11 8 C-9.02 8 -7.04 8 -5 8 C-5 6.02 -5 4.04 -5 2 C-1.125 0 -1.125 0 0 0 Z " fill="#0F6EB6" transform="translate(85,179)"/>
<path d="M0 0 C0 2.64 0 5.28 0 8 C2.64 8 5.28 8 8 8 C8 9.65 8 11.3 8 13 C5.36 13 2.72 13 0 13 C0.33 19.93 0.66 26.86 1 34 C3.31 34.33 5.62 34.66 8 35 C8.33 36.32 8.66 37.64 9 39 C0.89108911 39.62376238 0.89108911 39.62376238 -2.5 37.25 C-4.79504316 33.80743526 -5.12679773 30.75168185 -5.09765625 26.671875 C-5.09282227 25.47304687 -5.09282227 25.47304687 -5.08789062 24.25 C-5.07951172 23.425 -5.07113281 22.6 -5.0625 21.75 C-5.05798828 20.90953125 -5.05347656 20.0690625 -5.04882812 19.203125 C-5.03707961 17.13538599 -5.01914522 15.06768376 -5 13 C-6.98 13 -8.96 13 -11 13 C-11 11.35 -11 9.7 -11 8 C-9.02 8 -7.04 8 -5 8 C-5 6.02 -5 4.04 -5 2 C-1.125 0 -1.125 0 0 0 Z " fill="#0F6EB6" transform="translate(167,179)"/>
<path d="M0 0 C0.33 1.65 0.66 3.3 1 5 C-2.96 5 -6.92 5 -11 5 C-11 6.98 -11 8.96 -11 11 C-10.13375 11.2475 -9.2675 11.495 -8.375 11.75 C-4.5114731 13.18093589 -0.94650436 15.05349564 2 18 C2.6213552 22.37611591 2.78491471 25.8506606 0.25 29.5625 C-4.71481688 31.7584767 -9.6479773 31.48223543 -15 31 C-15.66 30.67 -16.32 30.34 -17 30 C-16.67 28.35 -16.34 26.7 -16 25 C-15.01 25.33 -14.02 25.66 -13 26 C-10.3071504 26.17812624 -7.70558632 26.08727698 -5 26 C-3.70366379 24.93354885 -3.70366379 24.93354885 -3.9375 22.4375 C-3.958125 21.633125 -3.97875 20.82875 -4 20 C-4.78246094 19.57847656 -5.56492187 19.15695313 -6.37109375 18.72265625 C-7.38300781 18.17480469 -8.39492188 17.62695312 -9.4375 17.0625 C-10.44683594 16.51722656 -11.45617188 15.97195312 -12.49609375 15.41015625 C-15 14 -15 14 -16 13 C-16.6258996 8.59187854 -16.80499474 5.13809601 -14.1875 1.4375 C-9.49265456 -0.67978324 -5.07054109 -0.31968385 0 0 Z " fill="#0F6EB6" transform="translate(69,187)"/>
<path d="M0 0 C1.125 3.75 1.125 3.75 0 6 C-2.64 6 -5.28 6 -8 6 C-9.01540112 10.10223585 -9.01540112 10.10223585 -8 14 C-5.97536745 14.65213292 -5.97536745 14.65213292 -4 15 C-4 14.34 -4 13.68 -4 13 C-5.32 13 -6.64 13 -8 13 C-8 11.35 -8 9.7 -8 8 C-4.7 8 -1.4 8 2 8 C2.02687279 9.81242052 2.04633715 11.62495233 2.0625 13.4375 C2.07410156 14.44683594 2.08570313 15.45617187 2.09765625 16.49609375 C2 19 2 19 1 20 C-1.09790198 20.20481609 -3.20550472 20.31406354 -5.3125 20.375 C-6.46363281 20.42398438 -7.61476563 20.47296875 -8.80078125 20.5234375 C-12 20 -12 20 -14.3828125 17.7890625 C-16.882478 13.47804519 -16.87285646 9.8403858 -16 5 C-12.25641934 -1.45444942 -6.67234497 -0.52584155 0 0 Z " fill="#0F6EB6" transform="translate(862,107)"/>
<path d="M0 0 C1 1 1 1 1.0625 3.5625 C1.041875 4.366875 1.02125 5.17125 1 6 C0.11248047 5.83951172 0.11248047 5.83951172 -0.79296875 5.67578125 C-5.95616232 4.88863918 -5.95616232 4.88863918 -10.9375 6.1875 C-14.30709248 9.14865703 -14.90488555 10.95374105 -15.3125 15.4375 C-14.97749464 19.25656107 -14.37658622 21.02926723 -12 24 C-8.88004842 25.99703797 -6.87896568 26.15867142 -3.25 25.625 C-2.45078125 25.51414063 -1.6515625 25.40328125 -0.828125 25.2890625 C-0.22484375 25.19367188 0.3784375 25.09828125 1 25 C1.33 26.65 1.66 28.3 2 30 C-2.38667928 32.19333964 -8.57575254 31.76165764 -13.17578125 30.31640625 C-16.09349969 28.8106886 -17.96880523 27.04125759 -19.9375 24.4375 C-21.84095866 18.27925139 -22.15924123 12.45224107 -19.375 6.5625 C-13.40730937 0.1236759 -8.5509925 -0.88860399 0 0 Z " fill="#0F6EB6" transform="translate(153,187)"/>
<path d="M0 0 C2.05078125 0.03255208 4.1015625 0.06510417 6.15234375 0.09765625 C9.03784001 6.68107006 11.00444632 12.99881691 12.15234375 20.09765625 C9.84234375 20.09765625 7.53234375 20.09765625 5.15234375 20.09765625 C5.15234375 19.10765625 5.15234375 18.11765625 5.15234375 17.09765625 C3.17234375 17.09765625 1.19234375 17.09765625 -0.84765625 17.09765625 C-0.84765625 18.08765625 -0.84765625 19.07765625 -0.84765625 20.09765625 C-3.15765625 20.09765625 -5.46765625 20.09765625 -7.84765625 20.09765625 C-3.67435188 0.19420464 -3.67435188 0.19420464 0 0 Z M1.15234375 8.09765625 C1.15234375 9.08765625 1.15234375 10.07765625 1.15234375 11.09765625 C1.81234375 11.09765625 2.47234375 11.09765625 3.15234375 11.09765625 C3.15234375 10.10765625 3.15234375 9.11765625 3.15234375 8.09765625 C2.49234375 8.09765625 1.83234375 8.09765625 1.15234375 8.09765625 Z " fill="#0F6EB6" transform="translate(832.84765625,106.90234375)"/>
<path d="M0 0 C1.98 0 3.96 0 6 0 C6 2.31 6 4.62 6 7 C7.65 7 9.3 7 11 7 C11 4.69 11 2.38 11 0 C12.98 0 14.96 0 17 0 C17 6.6 17 13.2 17 20 C15.02 20 13.04 20 11 20 C11 17.36 11 14.72 11 12 C9.35 12 7.7 12 6 12 C6 14.64 6 17.28 6 20 C4.02 20 2.04 20 0 20 C0 13.4 0 6.8 0 0 Z " fill="#0F6EB6" transform="translate(758,107)"/>
<path d="M0 0 C4.66534529 3.39614822 8.79429714 7.19144571 12 12 C11.39414062 11.7834375 10.78828125 11.566875 10.1640625 11.34375 C3.31049607 9.06625715 -3.38108538 7.18761132 -10.359375 9.92578125 C-21.05954998 15.85283896 -30.60373515 25.20391302 -39 34 C-39.66 33.67 -40.32 33.34 -41 33 C-36.48282783 28.45752653 -31.96178203 23.91893575 -27.43798828 19.38305664 C-25.89867553 17.83870708 -24.3602604 16.29346229 -22.82275391 14.74731445 C-20.61594799 12.5284145 -18.40596143 10.31272667 -16.1953125 8.09765625 C-15.50567413 7.4028566 -14.81603577 6.70805695 -14.10549927 5.99220276 C-13.46498627 5.35161423 -12.82447327 4.7110257 -12.16455078 4.05102539 C-11.60051544 3.48476944 -11.0364801 2.91851349 -10.45535278 2.33509827 C-7.38015829 -0.48599561 -3.95880924 -1.14654038 0 0 Z " fill="#0A6874" transform="translate(687,74)"/>
<path d="M0 0 C1.65 0 3.3 0 5 0 C5.33 0.66 5.66 1.32 6 2 C6.99 1.34 7.98 0.68 9 0 C11.33199388 -0.07905064 13.66832622 -0.08798769 16 0 C16 1.32 16 2.64 16 4 C14.906875 4.226875 13.81375 4.45375 12.6875 4.6875 C9.02502079 5.65166716 9.02502079 5.65166716 7.3125 7.9375 C5.4192224 12.35514773 5.43027644 16.5509667 5.3125 21.3125 C5.27833984 22.24384766 5.24417969 23.17519531 5.20898438 24.13476562 C5.12684059 26.42305672 5.05758338 28.71098104 5 31 C3.35 31 1.7 31 0 31 C0 20.77 0 10.54 0 0 Z " fill="#0F6EB6" transform="translate(99,187)"/>
<path d="M0 0 C3.96 0 7.92 0 12 0 C12 1.65 12 3.3 12 5 C10.02 5 8.04 5 6 5 C6 5.66 6 6.32 6 7 C7.98 7 9.96 7 12 7 C12 8.65 12 10.3 12 12 C10.02 12 8.04 12 6 12 C6 12.99 6 13.98 6 15 C7.98 15 9.96 15 12 15 C12 16.65 12 18.3 12 20 C8.04 20 4.08 20 0 20 C0 13.4 0 6.8 0 0 Z " fill="#0F6EB6" transform="translate(779,107)"/>
<path d="M0 0 C0.99773438 0.02320312 1.99546875 0.04640625 3.0234375 0.0703125 C4.52777344 0.09738281 4.52777344 0.09738281 6.0625 0.125 C6.83335937 0.14820312 7.60421875 0.17140625 8.3984375 0.1953125 C8.7284375 0.8553125 9.0584375 1.5153125 9.3984375 2.1953125 C8.4609375 4.3203125 8.4609375 4.3203125 7.3984375 6.1953125 C6.4290625 6.1746875 5.4596875 6.1540625 4.4609375 6.1328125 C1.52377855 5.83912751 1.52377855 5.83912751 0.3984375 7.1953125 C0.35750813 9.52828683 0.35602027 11.86236475 0.3984375 14.1953125 C3.0384375 14.1953125 5.6784375 14.1953125 8.3984375 14.1953125 C8.3984375 16.1753125 8.3984375 18.1553125 8.3984375 20.1953125 C-1.72212088 20.82348509 -1.72212088 20.82348509 -5.2265625 18.3203125 C-7.75713154 14.40943308 -7.9200189 11.89254442 -7.6015625 7.1953125 C-4.23945651 0.31827752 -4.23945651 0.31827752 0 0 Z " fill="#0F6EB6" transform="translate(882.6015625,106.8046875)"/>
<path d="M0 0 C5.28 0 10.56 0 16 0 C16 1.65 16 3.3 16 5 C14.35 5 12.7 5 11 5 C11 9.95 11 14.9 11 20 C9.02 20 7.04 20 5 20 C5 15.05 5 10.1 5 5 C3.35 5 1.7 5 0 5 C0 3.35 0 1.7 0 0 Z " fill="#0F6EB6" transform="translate(740,107)"/>
<path d="M0 0 C2.43119623 1.87015094 3.64069173 3.28138345 5 6 C5.37677003 10.99220285 5.07396361 13.98020143 2 18 C-1.21626531 19.60813266 -4.51223287 19.45492615 -8 19 C-10.5 17.6875 -10.5 17.6875 -12 15 C-12.71283186 10.10670629 -12.94774968 5.69805152 -10.5 1.3125 C-6.95965112 -0.54618316 -3.91404864 -0.81978021 0 0 Z M-7.8125 4.0625 C-9.65150018 7.06297398 -9.30671285 9.56481613 -9 13 C-8.01 14.485 -8.01 14.485 -7 16 C-4 16.41666667 -4 16.41666667 -1 16 C1.42520546 13.57479454 1.68564441 12.37932259 2 9 C1.00022932 5.71194312 1.00022932 5.71194312 -1 3 C-3.73531209 2.71207241 -5.41243666 2.65556632 -7.8125 4.0625 Z " fill="#0F6EB6" transform="translate(753,133)"/>
<path d="M0 0 C2.5 1.3125 2.5 1.3125 4 4 C4.71283186 8.89329371 4.94774968 13.30194848 2.5 17.6875 C-1.04986185 19.55117747 -4.07240154 19.67745025 -8 19 C-11.23613354 17.25746655 -11.82395315 16.52814056 -13 13 C-13.37032807 8.00057109 -13.0799137 5.02757945 -10 1 C-6.78373469 -0.60813266 -3.48776713 -0.45492615 0 0 Z M-8.875 5.125 C-10.23624256 8.60373098 -10.02781685 10.44217244 -9 14 C-7.11340125 16.30662599 -7.11340125 16.30662599 -4 16.3125 C-3.01 16.209375 -2.02 16.10625 -1 16 C1.46324069 12.30513897 1.38991688 10.36706908 1 6 C-0.04374022 3.95548981 -0.04374022 3.95548981 -2 3 C-5.49926863 2.30014627 -6.48118355 2.41200802 -8.875 5.125 Z " fill="#0F6EB6" transform="translate(807,133)"/>
<path d="M0 0 C1.216875 0.495 2.43375 0.99 3.6875 1.5 C13.00908681 4.58272949 22.03585526 3.64643176 31 0 C21.74325909 11.39038687 21.74325909 11.39038687 15.625 12.75 C8.68453437 11.31404159 4.0524767 5.57215547 0 0 Z " fill="#60C7D6" transform="translate(668,50)"/>
<path d="M0 0 C1.65 0 3.3 0 5 0 C5 10.23 5 20.46 5 31 C3.35 31 1.7 31 0 31 C0 20.77 0 10.54 0 0 Z " fill="#0F6EB6" transform="translate(120,187)"/>
<path d="M0 0 C1.65 0 3.3 0 5 0 C5 10.23 5 20.46 5 31 C3.35 31 1.7 31 0 31 C0 20.77 0 10.54 0 0 Z " fill="#0F6EB6" transform="translate(40,187)"/>
<path d="M0 0 C2.98838876 1.19950604 4.53465734 2.32327932 6.6875 4.69140625 C7.28304687 5.33207031 7.87859375 5.97273438 8.4921875 6.6328125 C8.92789063 7.12652344 9.36359375 7.62023437 9.8125 8.12890625 C9.1525 8.45890625 8.4925 8.78890625 7.8125 9.12890625 C6.8225 8.79890625 5.8325 8.46890625 4.8125 8.12890625 C-1.64580548 7.20795655 -6.33763983 7.89583412 -11.60546875 11.796875 C-17.54400209 17.16042175 -22.8679627 23.16020122 -28.1875 29.12890625 C-29.1775 28.79890625 -30.1675 28.46890625 -31.1875 28.12890625 C-27.61060105 23.74720503 -23.99680489 19.99677115 -19.6640625 16.375 C-17.59005826 14.49400247 -15.68809052 12.57685276 -13.7734375 10.5390625 C-13.16306641 9.89783447 -12.55269531 9.25660645 -11.92382812 8.59594727 C-10.69672046 7.29914684 -9.48398223 5.98857491 -8.28710938 4.66381836 C-3.99234258 0.16145503 -3.99234258 0.16145503 0 0 Z " fill="#F78D28" transform="translate(714.1875,121.87109375)"/>
<path d="M0 0 C8 0 8 0 10.5 1.5 C10.995 1.995 11.49 2.49 12 3 C11.67 5.31 11.34 7.62 11 10 C10.34 10 9.68 10 9 10 C9.66 11.11375 10.32 12.2275 11 13.375 C13 16.75 13 16.75 13 19 C11.1875 18.8125 11.1875 18.8125 9 18 C7.96986723 16.35178756 6.96885372 14.68496298 6 13 C5.01 12.67 4.02 12.34 3 12 C3 14.31 3 16.62 3 19 C2.01 19 1.02 19 0 19 C0 12.73 0 6.46 0 0 Z M3 3 C3 4.98 3 6.96 3 9 C4.65 8.67 6.3 8.34 8 8 C8 6.68 8 5.36 8 4 C6.35 3.67 4.7 3.34 3 3 Z " fill="#0F6EB6" transform="translate(780,133)"/>
<path d="M0 0 C8 0 8 0 10.5625 1.6875 C12 4 12 4 11.8125 6.5625 C11.20833333 8.375 10.60416667 10.1875 10 12 C10.95093297 13.69514137 11.95107762 15.36368108 13 17 C13 17.66 13 18.32 13 19 C11.68 19 10.36 19 9 19 C6 14.92857143 6 14.92857143 6 12 C5.01 12 4.02 12 3 12 C3 14.31 3 16.62 3 19 C2.01 19 1.02 19 0 19 C0 12.73 0 6.46 0 0 Z M3 3 C3 4.98 3 6.96 3 9 C4.65 8.67 6.3 8.34 8 8 C8.33 7.01 8.66 6.02 9 5 C8.34 4.34 7.68 3.68 7 3 C5.68 3 4.36 3 3 3 Z " fill="#0F6EB6" transform="translate(844,133)"/>
<path d="M0 0 C1.32 0.33 2.64 0.66 4 1 C5.29368129 3.48647917 6.29845726 5.76311227 7.25 8.375 C7.518125 9.06078125 7.78625 9.7465625 8.0625 10.453125 C9.1977905 13.43036641 10 15.78971192 10 19 C8.68 18.67 7.36 18.34 6 18 C5.67 16.35 5.34 14.7 5 13 C2.05272465 13.10169161 2.05272465 13.10169161 -1 14 C-2.45291273 16.46255685 -2.45291273 16.46255685 -3 19 C-4.32 18.67 -5.64 18.34 -7 18 C-4.69 12.06 -2.38 6.12 0 0 Z M1 6 C0.67 7.32 0.34 8.64 0 10 C0.99 10 1.98 10 3 10 C2.67 8.68 2.34 7.36 2 6 C1.67 6 1.34 6 1 6 Z " fill="#0F6EB6" transform="translate(832,133)"/>
<path d="M0 0 C1.98 0 3.96 0 6 0 C6 6.6 6 13.2 6 20 C4.02 20 2.04 20 0 20 C0 13.4 0 6.8 0 0 Z " fill="#0F6EB6" transform="translate(867,107)"/>
<path d="M0 0 C1.32 0 2.64 0 4 0 C5.32 2.31 6.64 4.62 8 7 C9.32 4.69 10.64 2.38 12 0 C12.99 0 13.98 0 15 0 C14.02251899 3.15801556 12.99315998 6.01285923 11.4375 8.9375 C9.84544301 12.32927358 9.37102924 15.28970757 9 19 C8.01 19 7.02 19 6 19 C5.85304688 18.03900391 5.85304688 18.03900391 5.703125 17.05859375 C4.68724966 11.18228035 3.15104904 7.04167846 0 2 C0 1.34 0 0.68 0 0 Z " fill="#0F6EB6" transform="translate(856,133)"/>
<path d="M0 0 C3.87299735 0.95498565 4.98582188 3.41448429 7.28125 6.5625 C4.56887599 7.43045968 2.86687438 7.52340796 -0.03125 7.25 C-4.59899811 7.6370973 -5.98100632 9.12492252 -9.04296875 12.34765625 C-9.59597656 12.74855469 -10.14898438 13.14945313 -10.71875 13.5625 C-12.82348633 13.13842773 -12.82348633 13.13842773 -14.71875 12.5625 C-12.83775392 10.5465042 -10.94116328 8.55078018 -9.03125 6.5625 C-8.50080078 5.99015625 -7.97035156 5.4178125 -7.42382812 4.828125 C-3.42741237 0.7091198 -3.42741237 0.7091198 0 0 Z " fill="#15599B" transform="translate(673.71875,141.4375)"/>
<path d="M0 0 C3.3 0 6.6 0 10 0 C10 0.99 10 1.98 10 3 C7.69 3 5.38 3 3 3 C3 4.98 3 6.96 3 9 C5.31 9 7.62 9 10 9 C10 9.66 10 10.32 10 11 C7.69 11 5.38 11 3 11 C3 13.64 3 16.28 3 19 C2.01 19 1.02 19 0 19 C0 12.73 0 6.46 0 0 Z " fill="#0F6EB6" transform="translate(761,133)"/>
<path d="M0 0 C4.62 0 9.24 0 14 0 C14 0.99 14 1.98 14 3 C12.35 3 10.7 3 9 3 C9 8.28 9 13.56 9 19 C8.01 19 7.02 19 6 19 C6 13.72 6 8.44 6 3 C4.02 3 2.04 3 0 3 C0 2.01 0 1.02 0 0 Z " fill="#0F6EB6" transform="translate(812,133)"/>
<path d="M0 0 C0.33 0.66 0.66 1.32 1 2 C-5.51734104 8.63583815 -5.51734104 8.63583815 -10.5625 9.875 C-15.42670465 8.63683882 -17.83870328 5.76665141 -21 2 C-18.45353496 0.72676748 -17.69082063 1.28081703 -15 2 C-9.60168919 2.42204975 -5.07004355 2.08001787 0 0 Z " fill="#FACD12" transform="translate(724,104)"/>
<path d="M0 0 C0.66 0.33 1.32 0.66 2 1 C0.84371094 2.12148437 0.84371094 2.12148437 -0.3359375 3.265625 C-1.34922356 4.26014651 -2.36222975 5.25495323 -3.375 6.25 C-3.88289062 6.74113281 -4.39078125 7.23226562 -4.9140625 7.73828125 C-7.85342883 10.62922988 -7.85342883 10.62922988 -10.03125 14.09375 C-11.46352357 16.91209476 -13.64130167 18.32669043 -16.125 20.25 C-21.10355102 24.20529152 -25.62136637 28.39553426 -30 33 C-30.66 32.67 -31.32 32.34 -32 32 C-21.44 21.44 -10.88 10.88 0 0 Z " fill="#096C78" transform="translate(678,75)"/>
<path d="M0 0 C4.95 0 9.9 0 15 0 C11 5 11 5 8.0625 6.1875 C5 6 5 6 3.50390625 4.7109375 C2.125 3.0625 2.125 3.0625 0 0 Z " fill="#0993D2" transform="translate(666,131)"/>
<path d="M0 0 C1.98 0 3.96 0 6 0 C6 1.98 6 3.96 6 6 C4.02 6 2.04 6 0 6 C0 4.02 0 2.04 0 0 Z " fill="#0F6EB6" transform="translate(119,176)"/>
<path d="M0 0 C1.98 0 3.96 0 6 0 C6 1.98 6 3.96 6 6 C4.02 6 2.04 6 0 6 C0 4.02 0 2.04 0 0 Z " fill="#0F6EB6" transform="translate(40,176)"/>
<path d="M0 0 C0.66 0.33 1.32 0.66 2 1 C-0.97 4.3 -3.94 7.6 -7 11 C-7.99 10.67 -8.98 10.34 -10 10 C-3.84965831 2.51708428 -3.84965831 2.51708428 0 0 Z " fill="#EE9D28" transform="translate(693,140)"/>
<path d="M0 0 C-1.53481294 3.80668295 -3.86522081 5.8962489 -6.9375 8.5625 C-11.07412468 12.16935634 -11.07412468 12.16935634 -15 16 C-15.66 15.67 -16.32 15.34 -17 15 C-14.54976242 12.49195282 -12.08852402 9.9949924 -9.625 7.5 C-8.57699219 6.42685547 -8.57699219 6.42685547 -7.5078125 5.33203125 C-6.8375 4.65527344 -6.1671875 3.97851562 -5.4765625 3.28125 C-4.85861816 2.65283203 -4.24067383 2.02441406 -3.60400391 1.37695312 C-2 0 -2 0 0 0 Z " fill="#E35126" transform="translate(697,103)"/>
<path d="M0 0 C-1.12436254 3.37308761 -2.07342733 4.15123097 -4.75 6.375 C-7.99668841 9.12534216 -11.03905179 11.94652216 -14 15 C-14.66 14.67 -15.32 14.34 -16 14 C-13.71643754 11.65861457 -11.42186626 9.32833018 -9.125 7 C-8.47402344 6.33226563 -7.82304688 5.66453125 -7.15234375 4.9765625 C-6.52714844 4.34492187 -5.90195312 3.71328125 -5.2578125 3.0625 C-4.6817627 2.47597656 -4.10571289 1.88945313 -3.51220703 1.28515625 C-2 0 -2 0 0 0 Z " fill="#087783" transform="translate(662,93)"/>
<path d="M0 0 C1.62490954 -0.02698189 3.24994633 -0.04638757 4.875 -0.0625 C5.77992188 -0.07410156 6.68484375 -0.08570312 7.6171875 -0.09765625 C10 0 10 0 12 1 C12 1.66 12 2.32 12 3 C10.35 3 8.7 3 7 3 C7 2.34 7 1.68 7 1 C4.69 1 2.38 1 0 1 C0 0.67 0 0.34 0 0 Z " fill="#029CAB" transform="translate(679,82)"/>
</svg>
